PathFileType	4	(X/Y/Z)	Kaydara																																																																																																																																																																																																																												
DataRate	CameraRate	NumFrames	NumMarkers	Units	OrigDataRate	OrigDataStartFrame	OrigNumFrames																																																																																																																																																																																																																								
60	60	4	74	mm	60	2335	226																																																																																																																																																																																																																								
Frame#	Time	N_lasi			N_rasi			N_rpsi			N_lpsi			N_fneck			N_bneck			N_fhead			N_rhead			N_lhead			N_rshld			N_relbtop			N_relbext			N_relblow			N_rwrext			N_rwrtop			N_rwrlow			N_lshld			N_lelblow			N_lelbtop			N_lwrext			N_lwrtop			N_lwrlow			N_rtopleg			N_ltopleg			N_rkneefr			N_rkneebk			N_rkneeis			N_lkneefr			N_lknssbk			N_lkneeis			N_rankfr			N_rankis			N_rankbk			N_lankfr			N_lankbk			N_lankis			D_lasi			D_rasi			D_lpsi			D_fneck			D_bneck			D_fhead			D_rhead			D_lhead			D_rshld			D_relbtop			D_relbext			D_relblow			D_rwrext			D_rwrtop			D_rwrlow			D_lshld			D_lelbext			D_lelblow			D_lelbtop			D_lwrext			D_lwrtop			D_lwrlow			D_rtopleg			D_ltopleg			D_rkneefr			D_rkneebk			D_rkneeis			D_lkneefr			D_lknssbk			D_lkneeis			D_rankfr			D_rankis			D_rankbk			D_lankfr			D_lankbk			D_lankis			D_rpsi			N_lelbext		
		X1	Y1	Z1	X2	Y2	Z2	X3	Y3	Z3	X4	Y4	Z4	X5	Y5	Z5	X6	Y6	Z6	X7	Y7	Z7	X8	Y8	Z8	X9	Y9	Z9	X10	Y10	Z10	X11	Y11	Z11	X12	Y12	Z12	X13	Y13	Z13	X14	Y14	Z14	X15	Y15	Z15	X16	Y16	Z16	X17	Y17	Z17	X18	Y18	Z18	X19	Y19	Z19	X20	Y20	Z20	X21	Y21	Z21	X22	Y22	Z22	X23	Y23	Z23	X24	Y24	Z24	X25	Y25	Z25	X26	Y26	Z26	X27	Y27	Z27	X28	Y28	Z28	X29	Y29	Z29	X30	Y30	Z30	X31	Y31	Z31	X32	Y32	Z32	X33	Y33	Z33	X34	Y34	Z34	X35	Y35	Z35	X36	Y36	Z36	X37	Y37	Z37	X38	Y38	Z38	X39	Y39	Z39	X40	Y40	Z40	X41	Y41	Z41	X42	Y42	Z42	X43	Y43	Z43	X44	Y44	Z44	X45	Y45	Z45	X46	Y46	Z46	X47	Y47	Z47	X48	Y48	Z48	X49	Y49	Z49	X50	Y50	Z50	X51	Y51	Z51	X52	Y52	Z52	X53	Y53	Z53	X54	Y54	Z54	X55	Y55	Z55	X56	Y56	Z56	X57	Y57	Z57	X58	Y58	Z58	X59	Y59	Z59	X60	Y60	Z60	X61	Y61	Z61	X62	Y62	Z62	X63	Y63	Z63	X64	Y64	Z64	X65	Y65	Z65	X66	Y66	Z66	X67	Y67	Z67	X68	Y68	Z68	X69	Y69	Z69	X70	Y70	Z70	X71	Y71	Z71	X72	Y72	Z72	X73	Y73	Z73	X74	Y74	Z74
																																																																																																																																																																																																																															
114	38.9	-516.39957	1256.38077	-72.55954	-511.02314	1264.70253	-300.59475	-246.61074	1229.68987	-359.3634	-256.43587	1226.71989	-10.79996	-370.21263	1610.12909	-175.7008	-207.71942	1663.9064	-153.79812	-455.0198	1799.72641	-190.48019	-260.21341	1775.53848	-242.57191	-314.76755	1779.54712	-95.76448	-249.3701	1633.10516	-382.91775	-242.73848	1538.57391	-646.10222	-332.21447	1518.08548	-638.40679	-287.84382	1617.54105	-635.16876	-279.36869	1561.56982	-968.85307	-319.81768	1586.46072	-974.49547	-356.28777	1558.31787	-962.70569	-226.40192	1613.5231	19.05362	-225.52217	1584.59946	279.19231	-219.0143	1498.07602	283.321	-200.05714	1526.05896	601.21063	-223.54507	1566.23993	610.1506	-270.1018	1539.90814	604.83006	-414.95132	1061.47636	-437.85198	-352.79266	1041.29044	50.2957	-424.17835	561.94454	-252.99946	-320.85335	578.31944	-325.31048	-359.13609	564.57661	-162.66811	-373.72616	540.0581	-99.1694	-246.90779	554.53983	-39.44027	-248.33736	546.35818	-188.84861	-296.77959	139.16434	-269.48517	-297.29033	153.87157	-189.494	-215.91331	140.1575	-215.74821	-330.80616	192.94991	-118.77714	-257.82141	184.52225	-75.68755	-264.11362	193.19809	-163.14028	-473.25493	1040.30647	1741.84891	-435.2256	1056.89751	1455.82382	-277.04622	1134.21204	1746.68579	-409.5673	1567.73819	1581.24817	-269.03345	1593.10791	1588.3316	-451.93146	1772.52243	1570.66849	-290.59319	1726.45874	1493.95569	-296.01439	1735.9166	1649.06693	-303.77016	1588.77701	1492.35703	-428.6515	1708.71521	1269.91898	-466.79409	1716.56204	1332.28851	-368.13862	1743.24585	1317.33047	-477.04563	1982.88391	1291.2529	-432.67551	1985.49057	1326.40808	-467.60902	1970.25894	1366.15616	-326.702	1558.29773	1782.67639	-436.27731	1486.86096	1994.46259	-348.19504	1480.62393	2014.76074	-407.05048	1430.71411	2048.17108	-452.60906	1710.84641	2078.88031	-408.19233	1713.03741	2080.61508	-394.4474	1707.78687	2031.67618	-341.44115	1004.61205	1411.81549	-330.90538	1011.13091	1812.24091	-376.21265	454.8941	1451.64688	-276.61119	491.4291	1423.9299	-284.00019	458.46329	1544.42276	-359.24728	448.11401	1772.33292	-247.13566	487.03968	1788.86459	-317.91788	444.63856	1680.81909	-324.56799	130.6125	1417.93594	-295.40007	126.97526	1482.94632	-244.47531	128.57878	1418.4668	-323.38291	135.00672	1792.92938	-250.99909	125.26167	1807.30255	-294.28829	124.70216	1733.66501	-251.22719	1150.36842	1529.49203	-305.51607	1517.92953	282.27793
115	38.917	-516.34254	1256.26053	-72.69916	-510.95955	1264.636	-300.68974	-246.65958	1229.67087	-359.53964	-256.49729	1226.73279	-11.09654	-370.17071	1610.12405	-175.73521	-207.6775	1663.90137	-153.83255	-454.8468	1799.77692	-190.2718	-259.71807	1775.57114	-242.69398	-314.64798	1779.41071	-95.63518	-249.38505	1633.34824	-382.73861	-242.67197	1539.63287	-646.15257	-332.15767	1518.97552	-638.5844	-287.80798	1618.41156	-634.87915	-279.41757	1563.69797	-968.75511	-319.82977	1588.64716	-974.37492	-356.3253	1560.51743	-962.686	-226.36215	1613.64685	18.68934	-225.71266	1585.20493	278.90879	-219.02475	1498.82538	283.25489	-200.40173	1528.00446	601.08704	-223.89357	1568.25302	610.06386	-270.47571	1541.66779	604.52106	-414.93477	1061.40709	-437.89978	-352.75993	1041.2233	50.07001	-424.24217	561.91761	-253.10711	-320.87536	578.3036	-325.44533	-359.17332	564.60823	-162.77573	-373.75637	540.05116	-99.28802	-246.89707	554.57512	-39.60489	-248.24961	546.51649	-189.22535	-296.80325	139.1758	-269.47834	-297.32452	153.87941	-189.53823	-215.8897	140.17853	-215.79424	-330.79983	192.93674	-118.7972	-257.82684	184.54515	-75.67988	-264.11316	193.20297	-163.14648	-473.37448	1040.32249	1741.87469	-435.30064	1056.92154	1455.9317	-277.18683	1134.19174	1746.73889	-409.74113	1567.72644	1581.34354	-269.13544	1593.09341	1588.37982	-451.98647	1772.54822	1570.76797	-290.59011	1726.42426	1493.95096	-296.11618	1735.88303	1649.13712	-304.14282	1588.76907	1492.32498	-428.92799	1708.59161	1269.93423	-467.00794	1716.43265	1332.27615	-368.36281	1743.22235	1317.43958	-477.50221	1982.70615	1291.11221	-433.22456	1985.40115	1326.10779	-468.02818	1970.16617	1365.85144	-326.8388	1558.24829	1782.85065	-436.16058	1486.23428	1994.73297	-348.15063	1480.16327	2014.98352	-406.73038	1430.07294	2048.17108	-452.50801	1710.2829	2078.95798	-408.22319	1712.56546	2080.62653	-394.55463	1707.33063	2031.50055	-341.54243	1004.59381	1411.86493	-331.05984	1011.11847	1812.30286	-376.27731	454.86103	1451.72897	-276.74387	491.44016	1423.97263	-284.09204	458.44936	1544.46686	-359.34551	448.1208	1772.39243	-247.22107	487.02003	1788.8562	-317.99292	444.63772	1680.84747	-324.63085	130.58459	1417.9924	-295.43859	126.97083	1482.96417	-244.4722	128.58121	1418.45322	-323.58215	135.08412	1793.08044	-251.04073	125.25789	1807.31598	-294.29834	124.69968	1733.68134	-251.31016	1150.36819	1529.58649	-305.57568	1518.49136	282.00893
116	38.933	-516.29986	1256.17874	-72.79067	-510.88833	1264.60686	-300.82537	-246.68652	1229.66888	-359.6769	-256.43911	1226.65474	-11.29466	-370.19634	1610.10986	-175.81753	-207.70313	1663.88702	-153.91486	-454.72397	1799.83246	-190.01553	-259.57741	1775.58868	-242.37728	-314.45423	1779.27689	-95.48522	-249.34366	1633.60428	-382.53254	-242.6968	1540.61584	-646.20567	-332.18479	1519.99664	-638.62282	-287.87508	1619.44077	-634.77524	-279.54491	1565.49622	-968.79814	-319.83406	1590.78659	-974.27841	-356.35632	1562.74994	-962.70767	-226.3726	1613.82477	18.3709	-225.96365	1586.02753	278.56651	-219.03807	1499.63486	283.10781	-200.91114	1529.81171	601.03863	-224.58155	1570.00137	609.73457	-270.88726	1543.38669	604.22867	-414.94137	1061.40808	-438.04871	-352.76081	1041.17691	49.93445	-424.31091	561.90655	-253.26233	-320.92907	578.27904	-325.58125	-359.15703	564.54914	-162.96553	-373.80417	540.07675	-99.45839	-246.97344	554.61464	-39.70831	-248.26696	546.53782	-189.34851	-296.79428	139.17259	-269.54069	-297.29923	153.86952	-189.55097	-215.917	140.14998	-215.81039	-330.8445	192.95183	-118.87247	-257.85553	184.5487	-75.72734	-264.14988	193.2123	-163.20784	-473.50922	1040.31235	1741.91254	-435.35351	1056.94229	1456.03256	-277.35733	1134.14879	1746.81732	-409.8983	1567.78992	1581.42441	-269.277	1593.0452	1588.43323	-451.97609	1772.54211	1570.83466	-290.6805	1726.4119	1494.10645	-296.22124	1735.87402	1649.20395	-304.19893	1588.7735	1492.5238	-429.18503	1708.48495	1269.99283	-467.27909	1716.29349	1332.2551	-368.56335	1743.1958	1317.43469	-477.97184	1982.59979	1290.85236	-433.7339	1985.37476	1325.91766	-468.53786	1970.21011	1365.58517	-327.01244	1558.1572	1783.09341	-436.09959	1485.66147	1994.84863	-348.41106	1479.62357	2015.7196	-406.4291	1429.49158	2048.40912	-452.51778	1709.7197	2079.11255	-408.29033	1712.09244	2080.62332	-394.73576	1706.72211	2031.40518	-341.62941	1004.56734	1411.9548	-331.24233	1011.1393	1812.43408	-376.32172	454.85535	1451.77353	-276.82676	491.44009	1424.02374	-284.18219	458.46241	1544.47495	-359.46667	448.1382	1772.38937	-247.33221	487.06142	1788.93021	-318.08706	444.6249	1680.88165	-324.6199	130.60771	1417.95593	-295.42608	126.98378	1483.02933	-244.49814	128.60804	1418.46939	-323.45295	135.03901	1792.97562	-251.05743	125.25415	1807.31522	-294.29932	124.68979	1733.68469	-251.40549	1150.34264	1529.65134	-305.71709	1519.03687	281.75064
117	38.95	-516.21227	1256.0981	-72.91794	-510.80456	1264.5385	-300.92552	-246.66332	1229.64905	-359.80236	-256.49252	1226.6938	-11.62619	-370.18948	1610.09964	-175.85567	-207.69625	1663.87695	-153.95303	-454.63142	1799.85245	-189.74546	-259.63274	1775.60043	-242.47578	-314.28827	1779.14597	-95.43892	-249.43159	1633.85117	-382.42577	-242.76754	1541.50345	-646.25252	-332.31953	1520.9343	-638.76629	-287.96572	1620.24323	-634.54449	-279.5883	1567.56805	-968.8533	-319.92548	1592.76901	-974.22874	-356.59935	1564.64172	-962.71851	-226.45281	1614.02527	17.96932	-226.17092	1586.74942	278.2324	-219.1354	1500.3067	282.88794	-201.49309	1531.49323	601.05312	-225.11375	1571.50238	609.60335	-271.49061	1544.94217	603.99734	-414.9408	1061.42509	-438.2724	-352.7599	1041.10619	49.86905	-424.37798	561.87103	-253.40834	-320.99182	578.24005	-325.72941	-359.2461	564.55925	-163.12983	-373.86242	540.08022	-99.59785	-247.12296	554.62543	-39.80147	-248.3548	546.50398	-189.46463	-296.80721	139.15859	-269.58107	-297.328	153.86826	-189.62597	-215.89094	140.18222	-215.88034	-330.85953	192.96589	-118.90505	-257.8886	184.55647	-75.74639	-264.17389	193.22321	-163.23366	-473.6549	1040.29022	1741.93634	-435.40085	1056.95099	1456.11008	-277.54107	1134.14337	1746.89957	-410.03185	1567.80258	1581.5126	-269.46253	1593.02917	1588.59772	-452.03987	1772.54639	1570.8519	-290.72344	1726.32446	1494.09454	-296.41573	1735.85144	1649.31992	-304.46629	1588.73611	1492.70905	-429.40342	1708.38699	1270.10078	-467.54967	1716.16776	1332.24854	-368.78159	1743.11356	1317.39044	-478.45818	1982.43423	1290.56519	-434.20033	1985.33691	1325.69901	-468.97659	1970.14862	1365.51773	-327.22393	1558.13797	1783.35876	-436.05213	1485.17654	1995.11108	-347.99938	1479.29901	2015.35507	-406.01574	1429.15085	2048.87939	-452.50988	1709.22974	2079.01276	-408.3849	1711.5802	2080.61447	-394.8341	1706.21536	2031.46027	-341.68846	1004.5549	1412.02591	-331.4724	1011.17119	1812.56424	-376.38115	454.86671	1451.77307	-276.8668	491.45336	1424.05243	-284.1975	458.46268	1544.56848	-359.66583	448.15685	1772.4411	-247.41102	487.06268	1789.01901	-318.13004	444.63249	1680.90652	-324.63516	130.61215	1417.96631	-295.43051	126.98728	1483.02429	-244.52612	128.59437	1418.51334	-323.4317	135.04025	1792.91473	-251.07113	125.2553	1807.2966	-294.32428	124.70888	1733.69171	-251.50251	1150.30746	1529.77356	-305.86771	1519.73099	281.57415
